<?xml version="1.0" encoding="utf-8"?>
<!-- Generator: Adobe Illustrator 16.0.4, SVG Export Plug-In . SVG Version: 6.00 Build 0)  -->
<!DOCTYPE svg PUBLIC "-//W3C//DTD SVG 1.1//EN" "http://www.w3.org/Graphics/SVG/1.1/DTD/svg11.dtd">
<svg version="1.1" id="Layer_1" xmlns="http://www.w3.org/2000/svg" xmlns:xlink="http://www.w3.org/1999/xlink" x="0px" y="0px"
	 width="144px" height="144px" viewBox="354.5 168 144 144" enable-background="new 354.5 168 144 144" xml:space="preserve">
<g>
	<path fill="#FFFFFF" d="M409.077,293.143c-0.239,0-0.48-0.044-0.713-0.132c-0.778-0.296-1.291-1.042-1.291-1.873V188.862
		c0-0.833,0.514-1.578,1.291-1.874c0.232-0.088,0.474-0.131,0.713-0.131c0.562,0,1.108,0.235,1.497,0.671l45.548,51.138
		c0.677,0.76,0.677,1.906,0,2.667l-45.548,51.138C410.186,292.905,409.638,293.143,409.077,293.143z"/>
	<path fill="#92000A" d="M408.676,188.862L454.225,240l-45.548,51.138V188.684 M409.076,184.853c-0.479,0-1.162,0.085-1.626,0.262
		c-1.555,0.593-2.783,2.083-2.783,3.747v102.276c0,1.663,1.229,3.154,2.783,3.747c0.465,0.177,1.048,0.262,1.526,0.262
		c1.122,0,2.269-0.471,3.044-1.344l45.572-51.137c1.354-1.52,1.366-3.813,0.013-5.333l-45.541-51.138
		C411.288,185.324,410.198,184.853,409.076,184.853L409.076,184.853z"/>
</g>
</svg>
